<?xml version="1.0" encoding="utf-8"?>
<!-- Generator: Adobe Illustrator 23.0.1, SVG Export Plug-In . SVG Version: 6.00 Build 0)  -->
<svg version="1.1" id="Layer_1" xmlns="http://www.w3.org/2000/svg" xmlns:xlink="http://www.w3.org/1999/xlink" x="0px" y="0px"
	 viewBox="0 0 512 512" style="enable-background:new 0 0 512 512;" xml:space="preserve">
<style type="text/css">
	.st0{fill:#B9DAF3;}
	.st1{fill:#D1E6F7;}
	.st2{fill:#EDD9B4;}
	.st3{fill:#DCC5A1;}
	.st4{fill-rule:evenodd;clip-rule:evenodd;fill:#BC9F82;}
	.st5{fill-rule:evenodd;clip-rule:evenodd;fill:#89BCE5;}
	.st6{fill:#FDDECC;}
	.st7{fill:#0B0C14;}
	.st8{fill-rule:evenodd;clip-rule:evenodd;}
	.st9{fill:#342214;}
	.st10{fill:#FFFFFF;}
	.st11{fill:#89BCE5;}
</style>
<g>
	<path class="st0" d="M356.9,411.8c0,0,0.7,5,1.7,13.2c21.9-14.5,40.5-33.6,54.5-55.9c-2.5-5.1-5.1-9.1-8-11.7
		c-9.5-8.3-32.5-26.5-112.2-61.5l-31.4-0.2V293h-28.7v2.8l-13.8,0.1c-79.7,34.9-102.8,53.1-112.2,61.5c-2.9,2.6-5.6,6.6-8,11.7
		c14,22.3,32.6,41.4,54.5,55.9c1-8.2,1.7-13.2,1.7-13.2l0,0l0,0c0,0,0,5.3,0,14.3C184.1,445,218.8,456,256,456
		c37.2,0,71.9-10.9,100.9-29.8C356.9,417.1,356.9,411.8,356.9,411.8z"/>
	<path class="st1" d="M106.8,357.4c9.5-8.3,32.5-26.5,112.2-61.5l13.8-0.1v-2.8h28.7v2.7l31.4,0.2c79.7,34.9,102.8,53.1,112.2,61.5
		c2.9,2.6,5.6,6.6,8,11.7c18-28.6,28.4-62.4,28.4-98.6C441.5,167.9,358.4,84.8,256,84.8S70.5,167.9,70.5,270.4
		c0,36.2,10.4,70.1,28.4,98.6C101.2,364,103.9,359.9,106.8,357.4z"/>
	<path class="st2" d="M256,190v143.4c14,0.1,28-6.2,38.7-19.2v-88.4C294.7,201.9,275.3,190,256,190z"/>
	<path class="st3" d="M217.3,225.8v88.3c10.7,12.6,24.7,19.1,38.7,19.2V190C236.6,190,217.3,201.9,217.3,225.8z"/>
	<path class="st4" d="M294.7,225.8v59.2c-14.6,10.7-28.7,16.7-38.7,16.7s-24.1-6-38.7-16.7v-59.2C217.3,178,294.7,178,294.7,225.8"
		/>
	<polygon class="st5" points="294.7,296.6 325.2,310.6 286.3,364.5 256,333.4 	"/>
	<polygon class="st5" points="217.3,296.6 186.7,310.6 225.6,364.5 256,333.4 	"/>
	<path class="st2" d="M256.9,260.7c0.3,0,0.4,0,0.7,0c18.9-0.9,3.2,21.2,27.3,8.3c24.1-12.9,23-50.5,11-51.3
		c-12-0.9-21.8,7.7-38.9,7.7h-0.2c-0.3,0-0.5,0-0.8,0v35.3C256.3,260.7,256.6,260.7,256.9,260.7z"/>
	<path class="st6" d="M256,286.8L256,286.8L256,286.8c0.1,0,0.1,0,0.2,0C256,286.8,256,286.8,256,286.8L256,286.8z"/>
	<path class="st6" d="M252,286.5c-0.3-0.1-0.6-0.1-0.9-0.2C251.4,286.4,251.7,286.4,252,286.5z"/>
	<path class="st3" d="M219.1,218.5c-12,0.9-15.7,36.7,8.4,49.6c23.3,12.5,12-7.1,28.5-7.5v-35.3
		C239.3,225.2,230.9,217.7,219.1,218.5z"/>
	<path class="st6" d="M253.2,286.7c0.9,0.1,1.9,0.2,2.8,0.2l0,0C255.1,286.8,254.2,286.7,253.2,286.7z"/>
	<g>
		<path class="st2" d="M356.6,170.2c-3.6-1.2-7.7,0.4-11.4,3.9c3.4-48.4-10-107-89.3-107l0,0v151.8c0.2,0,0.4,0,0.7,0h0.3
			c13.4-0.2,36.5-13.4,45.8-2.9c13.8,15.8,3.2,45.5-8.7,53.5c16.3-11.4,31.6-25.5,36.7-32.9c1.9-2.8,5.5-12.3,8.8-25.6
			c0.9,0.9,2,1.5,3.1,2c6.8,2.2,15.5-5.5,19.4-17.3C365.8,183.8,363.4,172.5,356.6,170.2z"/>
		<path class="st3" d="M166.5,172.4c-3.1-2.2-6.3-3.1-9.2-2.2c-6.8,2.2-9.2,13.6-5.3,25.4c3.9,11.8,12.6,19.5,19.4,17.3
			c0.5-0.2,1-0.4,1.5-0.7c3.2,12.6,6.6,21.8,8.4,24.3c5.2,7.7,21.6,22.7,38.6,34.2c-16.3-13.8-22.9-40.4-8.1-54.2
			c9.9-9.2,30.8,1.9,44.2,2.2V67.1C177.6,67.1,163.5,124.3,166.5,172.4z"/>
	</g>
	<path class="st7" d="M253.2,286.7c-0.4-0.1-0.8-0.1-1.2-0.2C252.4,286.6,252.9,286.6,253.2,286.7z"/>
	<path class="st7" d="M256.9,286.8c0.1,0,0.2,0,0.2,0c-0.3,0-0.7,0.1-1,0.1C256.4,286.8,256.6,286.8,256.9,286.8z"/>
	<path class="st7" d="M293.8,269.6c0.1,0,0.1-0.1,0.2-0.2c-0.2,0.1-0.3,0.2-0.4,0.3C293.6,269.8,293.7,269.7,293.8,269.6z"/>
	<path d="M302.7,216.1c-9.3-10.6-32.3,2.7-45.8,2.9h-0.3c-0.2,0-0.4,0-0.7,0c-13.4-0.3-34.3-11.5-44.2-2.2
		c-14.8,13.8-8.3,40.4,8.1,54.2c11.1,7.6,22.4,13.7,31.3,15.5c0.3,0.1,0.6,0.2,0.9,0.2c0.4,0.1,0.8,0.1,1.2,0.2
		c0.9,0.1,1.9,0.2,2.8,0.2l0,0c0.1,0,0.1,0,0.2,0c0.3,0,0.7,0,1-0.1c9.5-0.6,23-8.3,36.4-16.9c0.2-0.1,0.3-0.2,0.4-0.3
		C305.8,261.5,316.5,231.9,302.7,216.1z M284.9,269c-24.1,12.9-8.3-9.2-27.3-8.3c-0.3,0-0.4,0-0.7,0c-0.3,0-0.6,0-0.9,0
		c-16.5,0.4-5.2,20-28.5,7.5c-24.1-12.9-20.5-48.8-8.4-49.6c11.9-0.9,20.2,6.6,36.9,6.9c0.3,0,0.5,0,0.8,0h0.2
		c17.1-0.1,26.9-8.6,38.9-7.7C307.8,218.5,308.8,256.1,284.9,269z"/>
	<path class="st8" d="M256.1,111.7c-40.2,0.2-77.7-1.6-85.4,86.4c-19.5-68.9,7.1-142.8,83.9-142.2c79.5,0.7,108.2,73.8,86.3,142.2
		C323,103.7,292.5,111.6,256.1,111.7"/>
	<g>
		<path class="st9" d="M222.2,172.2c4.7,0,8.6,4.4,8.6,9.7c0,5.4-3.9,9.7-8.6,9.7s-8.6-4.4-8.6-9.7
			C213.6,176.6,217.3,172.2,222.2,172.2"/>
		<path class="st9" d="M291.8,172.2c4.7,0,8.6,4.4,8.6,9.7c0,5.4-3.9,9.7-8.6,9.7c-4.7,0-8.6-4.4-8.6-9.7
			C283.2,176.6,287.1,172.2,291.8,172.2"/>
		<path class="st10" d="M239.3,233.8c3,6.7,9.8,11.4,17.7,11.4c7.9,0,14.6-4.7,17.7-11.4H239.3z"/>
	</g>
	<path class="st11" d="M155.1,426.1c0-8.9,0-14.3,0-14.3l0,0C155,412,155,417.2,155.1,426.1L155.1,426.1z"/>
	<path class="st11" d="M356.8,426.1c0.6-0.3,1.2-0.8,1.7-1.1c-1-8.2-1.7-13.2-1.7-13.2S356.9,417.1,356.8,426.1z"/>
	<path class="st11" d="M155,411.8L155,411.8c0,0-0.7,4.9-1.7,13.2l0,0C154.3,416.9,155,412,155,411.8z"/>
	<path class="st11" d="M155.1,426.1c0-8.9,0-14.1,0-14.3c0,0.1-0.7,5.1-1.7,13.2C153.9,425.3,154.5,425.7,155.1,426.1z"/>
</g>
</svg>
